<svg width="360" height="150" xmlns="http://www.w3.org/2000/svg"><g fill="none" fill-rule="evenodd"><path d="M72.84 45.99c1.01-1.71-13.76-4.91-11.39 3.88 2.55 9.42 10.61 1 11.39-3.88m-5.8 14.41c-5-2.62-23.4-18.83-20.8-5.72 1.05 5.22 5 10.42 11.5 12.3 8.06 2.31 8.46-1.5 9.3-6.58M25.91 73.1c-1 13.09 9.56 26.14 25.12 31.28 4.99 1.66 21.05 4.28 21.1 10.59.06 5.49-6.45 10.44-10.87 13.68-6.02 4.4-7.42 5.8.53 8.15 2.5.73 2.88 2.88 2.2 4.61-1.14 2.85-4.84 1.84-7.75 1.58-33.85-2.92 9.47-18.38 4.22-26.51-4-6.2-34.85-5.23-23.27 3.98 15.33 12.17-24.83 14.36-19.94 21.81 2.42 3.7 8.87-.49 8.81 6.36-.02 3.37-14.12-.5-16.46-.9-20.04-3.37 16.38-18.3 18.67-21.95 2.81-4.5-7.71-9.03-22.97-27.3-9.2-11-4.42-31.12 5.74-40.19 12.5-11.15 31.73-17.25 48.83-22.8 10.49-3.42-4.2-7.08-8.93-6.51-3.11.36-19.35.38-8.98-3.65 6.35-2.47 13.56-.75 20.24.5 3.62.67 6.15.1 1.75-3.21-3.98-3-16.65-2.14-18.51-4.96-3.07-4.63 12.65-1.8 14.2-1.3 3.92 1.32 10.94 3.7 12.6 7.15 1.03 2.12 6.14-3.95-1.03-8.13-1.87-1.09-16.85-5.1-15.3-6.97 3.49-4.16 14.26 1.55 17.65 3.64 5.62 3.46 5.13 7.48 8.8 11.6 4.2 4.7 4.7-5.57 4.17-6.88-2.32-5.6-6.07-9-12.72-11.54-6.6-2.52-11.13-6.55-.67-4.8 16.4 2.73 19.55 14.93 18.62 26.1-.4 4.62 2.35 9.95.12 14.29-1.43 2.77-4.47 4.76-7.93 5.76-5.68 1.64-5.51 3.57-7.16 8.45-4.88 14.47-4.66 30.01-1.72 45.08.84 4.34-7.32 2.54-10.67 2-4.14-.68-2.1-12.42-2.17-14.98-.06-2.29 3.66-11.15-.31-12.25-6.73-1.86-14.3-4.35-17.4-9.84-7.76-13.78-17.88-1.6-18.61 8.06" fill="#E62600"/><path d="M145.07 88.3a1 1 0 01.8.35c.15.19.23.4.22.65l-1.31 10.12c0 .32-.14.6-.4.83-.26.23-.56.35-.9.35h-4.05c-.27 0-.46.16-.6.49l-1.98 16.02c-.06.33-.21.6-.44.84-.23.23-.51.34-.84.34h-11.2c-.72 0-1.09-.4-1.09-1.18l1.99-16.02c.13-.33 0-.5-.4-.5H95.36a1 1 0 01-.8-.34.9.9 0 01-.22-.64l1.02-8.06c.13-.52.3-1.01.5-1.47l22.18-39.72a1.6 1.6 0 011.48-.88h11.98c.47 0 .76.11.9.34.13.23.06.58-.2 1.03l-20.6 36.87c-.13.4-.07.59.2.59h14.55c.34 0 .53-.12.58-.34l1.5-12.34c.07-.33.22-.61.45-.84.23-.23.51-.34.84-.34h11.3a1 1 0 01.78.34c.16.18.24.4.23.65l-1.51 12.38c-.14.32 0 .49.4.49h4.15zm58.14 0a1 1 0 01.79.35c.16.19.23.4.22.65l-1.31 10.12c0 .32-.13.6-.4.83-.26.23-.56.35-.89.35h-4.06c-.26 0-.46.16-.6.49L195 117.1c-.07.33-.22.6-.45.84-.23.23-.51.34-.84.34h-11.2c-.72 0-1.08-.4-1.08-1.18l1.98-16.02c.13-.33 0-.5-.4-.5H153.5a1 1 0 01-.8-.34.9.9 0 01-.21-.64l1.01-8.06c.13-.52.3-1.01.5-1.47l22.18-39.72a1.6 1.6 0 011.48-.88h11.99c.46 0 .76.11.89.34.13.23.07.58-.2 1.03l-20.6 36.87c-.13.4-.06.59.2.59h14.56c.33 0 .52-.12.58-.34l1.5-12.34c.06-.33.21-.61.44-.84.23-.23.52-.34.85-.34h11.29a1 1 0 01.79.34c.16.18.23.4.22.65l-1.51 12.38c-.13.32 0 .49.4.49h4.16zm29.11 31.07c-6.4 0-11.39-1.67-14.95-5.01-3.57-3.34-5.35-7.96-5.35-13.86 0-1.58.07-2.79.2-3.64l3.17-25.95c.85-6.82 3.58-12.22 8.17-16.22 4.59-4 10.41-6 17.48-6 6.4 0 11.4 1.66 15 4.97 3.6 3.3 5.4 7.84 5.4 13.61l-.01 1.11a20.32 20.32 0 01-.19 2.53l-3.17 25.95c-.86 6.95-3.6 12.44-8.22 16.47-4.62 4.03-10.46 6.04-17.53 6.04zm1.49-11.9c2.84 0 5.21-.88 7.13-2.65 1.91-1.77 3.07-4.2 3.46-7.27l3.37-27.04c.07-.39.1-.91.1-1.57 0-2.62-.73-4.67-2.18-6.14-1.45-1.48-3.5-2.21-6.14-2.21a10 10 0 00-7.13 2.7 11 11 0 00-3.28 6.59l-3.45 27.67c-.07.4-.1.98-.1 1.77 0 2.55.72 4.55 2.18 6 1.45 1.44 3.46 2.16 6.04 2.16zm63.18-40.5c4.62 0 8.29 1.32 11 3.94 2.7 2.62 4.05 6.26 4.05 10.91v.52c-.03.6-.1 1.45-.2 2.53l-3.96 32.24c-.06.33-.21.6-.44.84-.23.23-.51.34-.84.34h-11.2c-.72 0-1.08-.4-1.08-1.18l3.66-29.4c.07-.32.1-.84.1-1.57a7.4 7.4 0 00-1.88-5.25 6.46 6.46 0 00-4.95-2.02c-2.38 0-4.4.8-6.04 2.4a10.44 10.44 0 00-2.98 6.45l-3.66 29.4c-.07.32-.21.6-.45.83-.23.23-.5.34-.84.34H266.1a1 1 0 01-.79-.34.9.9 0 01-.22-.65l8.24-66.64c0-.33.13-.6.4-.84.26-.23.56-.34.89-.34h11.19a1 1 0 01.8.34c.15.19.22.4.21.65l-2.7 21.91c0 .2.06.33.15.4.1.06.22.03.35-.1 2.97-3.8 7.1-5.7 12.38-5.7zm18.92 51.32c-.33 0-.61-.11-.85-.34a.85.85 0 01-.26-.65l1.3-10.7c.07-.4.33-.9.8-1.48l24.66-24.28c.33-.4.3-.6-.1-.6h-20.3a1 1 0 01-.8-.34.9.9 0 01-.22-.64l1.21-10.32c.07-.33.22-.6.45-.83.23-.23.51-.35.84-.35h35.95a1 1 0 01.8.35c.15.18.22.4.21.64l-1.3 10.61c0 .4-.24.89-.7 1.48l-25.35 24.28c-.27.4-.2.59.2.59h21.98a1 1 0 01.8.34c.15.19.23.4.21.65l-1.3 10.41c-.07.33-.22.6-.45.84-.23.23-.51.34-.84.34H315.9z" fill="#171219" fill-rule="nonzero"/></g></svg>