<?xml version="1.0" encoding="UTF-8" standalone="no"?>
<svg
   xmlns:dc="http://purl.org/dc/elements/1.1/"
   xmlns:cc="http://creativecommons.org/ns#"
   xmlns:rdf="http://www.w3.org/1999/02/22-rdf-syntax-ns#"
   xmlns:svg="http://www.w3.org/2000/svg"
   xmlns="http://www.w3.org/2000/svg"
   xmlns:sodipodi="http://sodipodi.sourceforge.net/DTD/sodipodi-0.dtd"
   xmlns:inkscape="http://www.inkscape.org/namespaces/inkscape"
   version="1.1"
   id="svg2"
   xml:space="preserve"
   width="149.20667"
   height="27.935066"
   viewBox="0 0 149.20667 27.935066"
   sodipodi:docname="logo.ai"><metadata
     id="metadata8"><rdf:RDF><cc:Work
         rdf:about=""><dc:format>image/svg+xml</dc:format><dc:type
           rdf:resource="http://purl.org/dc/dcmitype/StillImage" /></cc:Work></rdf:RDF></metadata><defs
     id="defs6"><clipPath
       clipPathUnits="userSpaceOnUse"
       id="clipPath18"><path
         d="M 0,20.951 H 111.905 V 0 H 0 Z"
         id="path16" /></clipPath></defs><sodipodi:namedview
     bordercolor="#666666"
     borderopacity="1"
     objecttolerance="10"
     gridtolerance="10"
     guidetolerance="10"
     inkscape:pageopacity="0"
     inkscape:pageshadow="2"
     inkscape:window-width="640"
     inkscape:window-height="480"
     id="namedview4" /><g
     id="g10"
     inkscape:groupmode="layer"
     inkscape:label="logo"
     transform="matrix(1.3333333,0,0,-1.3333333,0,27.935067)"><g
       id="g12"><g
         id="g14"
         clip-path="url(#clipPath18)"><g
           id="g20"
           transform="translate(15.6399,2.8294)"><path
             d="M 0,0 V 6.111 L -1.056,5.913 v -6.531 c -1.238,-0.618 -2.632,-0.968 -4.108,-0.968 -0.046,0 -0.091,0.003 -0.137,0.003 V 5.85 l -1.055,1.121 v -8.476 c -1.334,0.173 -2.58,0.629 -3.673,1.31 v 3.169 l -1.056,0.973 V 0.571 c -1.161,0.974 -2.08,2.227 -2.652,3.656 l 2.341,1.727 1.307,-1.084 -0.029,2.18 3.171,2.397 1.593,-1.582 -0.011,2.594 2.379,1.758 1.955,-2.57 L -1.039,7.749 2.265,8.386 4.057,7.21 C 3.917,4.212 2.339,1.585 0,0 m -14.396,7.646 c 0,5.091 4.141,9.232 9.232,9.232 4.802,0 8.747,-3.689 9.181,-8.379 L 2.485,9.503 0.021,9.028 l 0.005,1.071 -2.927,3.493 -3.522,-2.602 0.002,-0.578 -0.409,0.406 -4.35,-3.221 0.02,-0.749 -0.335,0.314 -2.595,-1.874 c -0.199,0.753 -0.306,1.543 -0.306,2.358 m 9.232,10.476 c -5.776,0 -10.476,-4.7 -10.476,-10.476 0,-5.776 4.7,-10.476 10.476,-10.476 5.776,0 10.476,4.7 10.476,10.476 0,5.776 -4.7,10.476 -10.476,10.476"
             style=" fill-opacity:1;fill-rule:nonzero;stroke:none"
             id="path22" /></g><g
           id="g24"
           transform="translate(29.4436,14.5062)"><path
             d="m 0,0 c 1.151,0 3.212,-0.485 3.212,-1.855 v -0.72 H 2.097 v 0.369 c 0,0.715 -1.212,1.078 -2.074,1.078 -1.72,0 -3.053,-1.296 -3.053,-3.224 0,-1.867 1.344,-3.357 3.091,-3.357 1.696,0 2.703,1.163 2.703,1.163 l 0.654,-0.872 c 0,0 -1.212,-1.431 -3.37,-1.431 -2.558,0 -4.339,1.976 -4.339,4.497 C -4.291,-1.879 -2.449,0 0,0"
             style=" fill-opacity:1;fill-rule:nonzero;stroke:none"
             id="path26" /></g><path
           d="m 33.988,14.36 h 1.055 v -1.224 h -1.055 z m -0.025,-3.697 c 0,0.182 -0.097,0.267 -0.266,0.267 h -0.498 v 1.006 h 1.153 c 0.545,0 0.775,-0.23 0.775,-0.776 V 7.076 c 0,-0.182 0.097,-0.267 0.267,-0.267 h 0.497 V 5.803 h -1.152 c -0.545,0 -0.776,0.23 -0.776,0.775 z"
           style=" fill-opacity:1;fill-rule:nonzero;stroke:none"
           id="path28" /><g
           id="g30"
           transform="translate(36.9201,10.9906)"><path
             d="M 0,0 H -0.8 V 0.945 H 0.024 V 2.63 H 1.176 V 0.945 H 2.643 V 0 H 1.176 v -2.812 c 0,-1.224 0.848,-1.382 1.297,-1.382 0.17,0 0.279,0.025 0.279,0.025 v -1.043 c 0,0 -0.157,-0.024 -0.412,-0.024 -0.776,0 -2.34,0.242 -2.34,2.291 z"
             style=" fill-opacity:1;fill-rule:nonzero;stroke:none"
             id="path32" /></g><g
           id="g34"
           transform="translate(40.8225,10.9906)"><path
             d="M 0,0 H -0.8 V 0.945 H 0.024 V 2.63 H 1.177 V 0.945 H 2.643 V 0 H 1.177 v -2.812 c 0,-1.224 0.847,-1.382 1.297,-1.382 0.169,0 0.278,0.025 0.278,0.025 v -1.043 c 0,0 -0.157,-0.024 -0.412,-0.024 -0.776,0 -2.34,0.242 -2.34,2.291 z"
             style=" fill-opacity:1;fill-rule:nonzero;stroke:none"
             id="path36" /></g><g
           id="g38"
           transform="translate(46.3742,6.6028)"><path
             d="M 0,0 C 0.994,0 1.636,1.042 1.636,1.952 V 2.158 H 1.333 C 0.448,2.158 -1.151,2.109 -1.151,0.982 -1.151,0.485 -0.776,0 0,0 m -1.2,7.757 h 1.187 L 0.873,6.218 H -0.049 Z M 1.357,3.018 h 0.267 v 0.061 c 0,1.079 -0.4,1.466 -1.357,1.466 -0.291,0 -1.006,-0.072 -1.006,-0.472 V 3.721 h -1.104 v 0.606 c 0,1.006 1.528,1.152 2.121,1.152 1.989,0 2.522,-1.043 2.522,-2.4 V 0.473 C 2.8,0.291 2.896,0.206 3.066,0.206 H 3.563 V -0.8 H 2.461 c -0.546,0 -0.764,0.266 -0.764,0.703 0,0.206 0.024,0.364 0.024,0.364 H 1.697 c 0,0 -0.485,-1.212 -1.952,-1.212 -1.055,0 -2.085,0.642 -2.085,1.866 0,1.976 2.667,2.097 3.697,2.097"
             style=" fill-opacity:1;fill-rule:nonzero;stroke:none"
             id="path40" /></g><g
           id="g42"
           transform="translate(55.0764,8.8573)"><path
             d="m 0,0 c 0,1.236 -0.63,2.449 -1.939,2.449 -1.08,0 -1.964,-0.909 -1.964,-2.449 0,-1.503 0.788,-2.46 1.927,-2.46 C -0.958,-2.46 0,-1.733 0,0 m -2.012,3.188 c 1.479,0 1.988,-1.14 1.988,-1.14 H 0 c 0,0 -0.024,0.207 -0.024,0.461 v 1.976 c 0,0.17 -0.097,0.266 -0.267,0.266 H -0.8 V 5.467 H 0.061 C 0.582,5.467 0.8,5.249 0.8,4.728 v -6.801 c 0,-0.181 0.096,-0.266 0.266,-0.266 H 1.575 V -3.054 H 0.728 c -0.51,0 -0.728,0.23 -0.728,0.678 0,0.23 0.024,0.388 0.024,0.388 H 0 c 0,0 -0.497,-1.212 -2.097,-1.212 -1.636,0 -2.655,1.309 -2.655,3.2 0,1.927 1.14,3.188 2.74,3.188"
             style=" fill-opacity:1;fill-rule:nonzero;stroke:none"
             id="path44" /></g><g
           id="g46"
           transform="translate(61.7785,9.4754)"><path
             d="M 0,0 C -0.049,1.261 -0.824,1.879 -1.722,1.879 -2.728,1.879 -3.612,1.224 -3.818,0 Z m -1.709,2.57 c 1.685,0 2.558,-1.297 2.558,-2.812 0,-0.146 -0.025,-0.412 -0.025,-0.412 h -4.678 c 0.024,-1.54 1.102,-2.425 2.363,-2.425 1.115,0 1.831,0.752 1.831,0.752 l 0.399,-0.618 c 0,0 -0.885,-0.873 -2.266,-0.873 -1.806,0 -3.188,1.309 -3.188,3.188 0,2 1.369,3.2 3.006,3.2"
             style=" fill-opacity:1;fill-rule:nonzero;stroke:none"
             id="path48" /></g><g
           id="g50"
           transform="translate(63.6233,13.3421)"><path
             d="m 0,0 c 0,0.17 -0.098,0.267 -0.267,0.267 h -0.509 v 0.715 h 0.861 c 0.52,0 0.739,-0.218 0.739,-0.739 v -6.801 c 0,-0.181 0.097,-0.266 0.267,-0.266 H 1.6 V -7.539 H 0.739 C 0.218,-7.539 0,-7.321 0,-6.8 Z"
             style=" fill-opacity:1;fill-rule:nonzero;stroke:none"
             id="path52" /></g><g
           id="g54"
           transform="translate(66.3664,13.3421)"><path
             d="m 0,0 c 0,0.17 -0.097,0.267 -0.267,0.267 h -0.508 v 0.715 h 0.86 c 0.521,0 0.739,-0.218 0.739,-0.739 v -6.801 c 0,-0.181 0.098,-0.266 0.267,-0.266 h 0.51 V -7.539 H 0.739 C 0.219,-7.539 0,-7.321 0,-6.8 Z"
             style=" fill-opacity:1;fill-rule:nonzero;stroke:none"
             id="path56" /></g><g
           id="g58"
           transform="translate(70.759,6.3602)"><path
             d="M 0,0 C 1.163,0 1.866,1.212 1.866,2.267 V 2.546 H 1.515 C 0.558,2.546 -1.357,2.521 -1.357,1.152 -1.357,0.582 -0.909,0 0,0 m 1.527,3.2 h 0.339 v 0.073 c 0,1.272 -0.46,1.721 -1.575,1.721 -0.304,0 -1.188,-0.085 -1.188,-0.533 V 4.073 h -0.789 v 0.582 c 0,0.848 1.456,1.03 1.989,1.03 1.927,0 2.387,-1.03 2.387,-2.339 V 0.424 C 2.69,0.243 2.788,0.158 2.957,0.158 H 3.559 L 3.467,-0.557 H 2.63 c -0.522,0 -0.728,0.23 -0.728,0.727 0,0.267 0.013,0.449 0.013,0.449 H 1.891 c 0.011,0 -0.497,-1.322 -2.025,-1.322 -1.017,0 -2.072,0.594 -2.072,1.806 0,2.024 2.679,2.097 3.733,2.097"
             style=" fill-opacity:1;fill-rule:nonzero;stroke:none"
             id="path60" /></g><g
           id="g62"
           transform="translate(74.9035,5.803)"><path
             d="M 0,0 0.715,8.557 H 1.964 L 3.976,4.024 C 4.182,3.563 4.4,2.945 4.4,2.945 h 0.024 c 0,0 0.219,0.618 0.425,1.079 L 6.86,8.557 H 8.109 L 8.69,1.309 C 8.703,1.139 8.788,1.042 8.957,1.042 h 0.4 L 9.357,0 H 8.278 C 7.733,0 7.539,0.23 7.503,0.775 L 7.151,5.297 C 7.115,5.806 7.127,6.557 7.127,6.557 H 7.103 c 0,0 -0.243,-0.8 -0.449,-1.26 L 4.921,1.539 H 3.903 L 2.17,5.297 C 1.964,5.745 1.709,6.569 1.709,6.569 H 1.685 c 0,0 0.012,-0.763 -0.025,-1.272 L 1.321,0.775 C 1.285,0.23 1.091,0 0.533,0 Z"
             style=" fill-opacity:1;fill-rule:nonzero;stroke:none"
             id="path64" /></g><g
           id="g66"
           transform="translate(85.1926,10.6634)"><path
             d="m 0,0 c 0,0.182 -0.097,0.267 -0.267,0.267 h -0.497 v 1.005 h 1.153 c 0.557,0 0.787,-0.23 0.787,-0.751 v -2.909 c 0,-0.848 0.17,-1.527 1.139,-1.527 1.261,0 2,1.103 2,2.315 v 2.872 h 1.176 v -4.86 c 0,-0.182 0.097,-0.267 0.267,-0.267 H 6.255 V -4.86 H 5.128 c -0.522,0 -0.776,0.242 -0.776,0.678 v 0.23 c 0,0.195 0.012,0.352 0.012,0.352 H 4.34 C 4.085,-4.206 3.298,-5.006 2.085,-5.006 0.703,-5.006 0,-4.279 0,-2.654 Z"
             style=" fill-opacity:1;fill-rule:nonzero;stroke:none"
             id="path68" /></g><g
           id="g70"
           transform="translate(92.2834,7.5242)"><path
             d="m 0,0 c 0,0 0.727,-0.909 1.854,-0.909 0.57,0 1.067,0.254 1.067,0.787 0,1.103 -3.346,0.982 -3.346,2.958 0,1.176 1.03,1.722 2.279,1.722 0.74,0 2.012,-0.255 2.012,-1.188 V 2.788 H 2.812 v 0.303 c 0,0.364 -0.545,0.521 -0.921,0.521 -0.692,0 -1.14,-0.242 -1.14,-0.727 0,-1.164 3.346,-0.909 3.346,-2.958 0,-1.091 -0.97,-1.794 -2.255,-1.794 -1.636,0 -2.448,1.079 -2.448,1.079 z"
             style=" fill-opacity:1;fill-rule:nonzero;stroke:none"
             id="path72" /></g><path
           d="m 97.604,14.36 h 1.055 v -1.224 h -1.055 z m -0.025,-3.697 c 0,0.182 -0.096,0.267 -0.266,0.267 h -0.497 v 1.006 h 1.151 c 0.546,0 0.776,-0.23 0.776,-0.776 V 7.076 c 0,-0.182 0.097,-0.267 0.267,-0.267 h 0.496 V 5.803 h -1.151 c -0.545,0 -0.776,0.23 -0.776,0.775 z"
           style=" fill-opacity:1;fill-rule:nonzero;stroke:none"
           id="path74" /><g
           id="g76"
           transform="translate(103.1906,12.0819)"><path
             d="m 0,0 c 0.74,0 2.206,-0.303 2.206,-1.346 v -0.63 H 1.14 v 0.339 c 0,0.437 -0.691,0.631 -1.14,0.631 -1.199,0 -2.097,-0.897 -2.097,-2.194 0,-1.394 1.019,-2.182 2.158,-2.182 1.152,0 1.903,0.848 1.903,0.848 L 2.473,-5.37 c 0,0 -0.872,-1.054 -2.496,-1.054 -1.928,0 -3.274,1.369 -3.274,3.212 C -3.297,-1.406 -1.976,0 0,0"
             style=" fill-opacity:1;fill-rule:nonzero;stroke:none"
             id="path78" /></g><g
           id="g80"
           transform="translate(108.342,6.6028)"><path
             d="M 0,0 C 0.994,0 1.636,1.042 1.636,1.952 V 2.158 H 1.333 C 0.448,2.158 -1.151,2.109 -1.151,0.982 -1.151,0.485 -0.776,0 0,0 m 1.357,3.018 h 0.267 v 0.061 c 0,1.079 -0.4,1.466 -1.357,1.466 -0.291,0 -1.006,-0.072 -1.006,-0.472 V 3.721 h -1.104 v 0.606 c 0,1.006 1.528,1.152 2.121,1.152 1.989,0 2.522,-1.043 2.522,-2.4 V 0.473 C 2.8,0.291 2.896,0.206 3.066,0.206 H 3.563 V -0.8 H 2.46 c -0.545,0 -0.764,0.266 -0.764,0.703 0,0.206 0.025,0.364 0.025,0.364 H 1.696 c 0,0 -0.484,-1.212 -1.951,-1.212 -1.055,0 -2.085,0.642 -2.085,1.866 0,1.976 2.667,2.097 3.697,2.097"
             style=" fill-opacity:1;fill-rule:nonzero;stroke:none"
             id="path82" /></g></g></g></g></svg>
