<?xml version="1.0" encoding="utf-8"?>
<!-- Generator: Adobe Illustrator 22.0.1, SVG Export Plug-In . SVG Version: 6.00 Build 0)  -->
<svg version="1.1" id="Livello_1" xmlns="http://www.w3.org/2000/svg" xmlns:xlink="http://www.w3.org/1999/xlink" x="0px" y="0px"
	 viewBox="0 0 300 62" style="enable-background:new 0 0 300 62;" xml:space="preserve">
<style type="text/css">
	.st0{fill:#1D1D1B;}
	.st1{fill:#F7BF3A;}
	.st2{fill:none;stroke:#1D1D1B;stroke-width:0.311;stroke-miterlimit:10;}
</style>
<g>
	<path class="st0" d="M8,30.5l0.7-3.2c0.5,0.5,1,0.9,1.3,1.1c0.9,0.8,1.9,1.1,3,1.1c0.9,0,1.5-0.3,2-0.8c0.5-0.5,0.7-1.2,0.7-2
		c0-0.9-0.3-1.6-1-2.1c-0.3-0.3-1.2-0.7-2.6-1.4c-1.5-0.8-2.5-1.6-3.1-2.4c-0.6-1-1-2.1-1-3.3c0-1,0.2-1.9,0.6-2.7
		c0.4-0.9,0.9-1.6,1.6-2.1c1-0.8,2.4-1.3,4.1-1.3c1.5,0,3,0.4,4.5,1.1l-0.6,3c-1.5-1.2-2.8-1.8-3.9-1.8c-0.7,0-1.2,0.2-1.7,0.7
		c-0.4,0.4-0.6,1-0.6,1.6c0,0.8,0.3,1.4,0.9,1.9c0.4,0.3,1.2,0.8,2.6,1.5c1.6,0.8,2.7,1.6,3.3,2.6c0.6,1,0.9,2.1,0.9,3.4
		c0,1.1-0.2,2.1-0.6,3c-0.4,0.9-0.9,1.7-1.6,2.3c-1.1,1-2.5,1.5-4.4,1.5c-1.4,0-2.8-0.3-4.1-0.9C8.9,31,8.5,30.8,8,30.5z"/>
	<path class="st0" d="M22.2,17.7h-1.7v-2.1h1.7v-2.4l4.1-0.5c-0.1,0.5-0.1,0.8-0.1,1.1v1.8h2v2.1h-2v10.7c0,0.8,0.3,1.2,0.9,1.2
		c0.3,0,0.7-0.2,1.2-0.5v2.3c-0.9,0.5-1.9,0.7-2.8,0.7c-1.2,0-2-0.3-2.6-1c-0.4-0.5-0.6-1.3-0.6-2.3V17.7z"/>
	<path class="st0" d="M30.1,15.6h4.1v1.7c0.4-1.4,1.5-2.1,3.4-2.1v3.5c-0.3,0-0.5-0.1-0.7-0.1c-1.7,0-2.6,1.1-2.6,3.2v9.1
		c0,0.4,0.1,0.7,0.1,1h-4.3c0.1-0.3,0.1-0.6,0.1-1V16.5C30.2,16.1,30.2,15.8,30.1,15.6z"/>
	<path class="st0" d="M47.5,31.8V30c-0.5,0.7-1,1.1-1.4,1.4c-0.7,0.5-1.6,0.7-2.6,0.7c-1.4,0-2.4-0.4-3.1-1.2c-0.7-0.8-1-2-1-3.7
		V16.5c0-0.4,0-0.7-0.1-1h4.3c-0.1,0.2-0.1,0.6-0.1,1v10.1c0,0.7,0.1,1.2,0.4,1.5c0.3,0.5,0.8,0.7,1.5,0.7c0.7,0,1.3-0.3,1.7-0.8
		c0.3-0.4,0.4-0.9,0.4-1.6v-9.9c0-0.4-0.1-0.7-0.1-1h4.3c-0.1,0.2-0.1,0.6-0.1,1v14.3c0,0.3,0,0.7,0.1,1H47.5z"/>
	<path class="st0" d="M58.5,17.2c1-1.4,2.3-2.1,3.8-2.1c1.6,0,2.8,0.7,3.6,2.1c0.5-0.6,1-1.1,1.5-1.3c0.8-0.5,1.7-0.7,2.7-0.7
		c1.3,0,2.4,0.5,3,1.4c0.6,0.7,0.8,1.7,0.8,3v11.3c0,0.4,0,0.7,0.1,1h-4.3c0.1-0.3,0.1-0.6,0.1-1V20.5c0-0.7-0.1-1.2-0.3-1.5
		c-0.3-0.4-0.7-0.6-1.3-0.6c-0.6,0-1.1,0.2-1.4,0.5c-0.4,0.4-0.6,1-0.6,1.7v10.2c0,0.4,0.1,0.7,0.1,1H62c0.1-0.3,0.1-0.6,0.1-1V20.5
		c0-0.7-0.1-1.2-0.3-1.5c-0.3-0.4-0.7-0.6-1.3-0.6c-0.6,0-1.1,0.2-1.5,0.6c-0.3,0.4-0.5,0.9-0.5,1.5v10.2c0,0.4,0.1,0.7,0.1,1h-4.3
		c0.1-0.3,0.1-0.6,0.1-1V16.5c0-0.4-0.1-0.7-0.1-1h4.1V17.2z"/>
	<path class="st0" d="M88.8,30.7c-0.7,0.4-1.3,0.7-1.8,0.9c-0.9,0.4-2,0.5-3.3,0.5c-2.4,0-4.3-0.8-5.6-2.4c-1.2-1.4-1.8-3.4-1.8-5.9
		c0-2.8,0.7-5,2-6.6c1.2-1.4,2.8-2.2,4.9-2.2c2.7,0,4.6,1.3,5.6,3.8c0.5,1.2,0.7,2.7,0.7,4.7h-8.9c0,1.6,0.2,2.8,0.5,3.7
		c0.6,1.8,1.7,2.7,3.4,2.7c1.4,0,2.7-0.7,3.9-2L88.8,30.7z M80.6,21.5h4.5c0-0.9-0.1-1.6-0.2-2.2c-0.1-0.7-0.4-1.2-0.8-1.6
		c-0.3-0.4-0.7-0.5-1.2-0.5c-0.9,0-1.6,0.7-2,2C80.7,19.8,80.6,20.6,80.6,21.5z"/>
	<path class="st0" d="M91.6,15.6h4.1v1.8c0.4-0.7,0.9-1.2,1.3-1.4c0.8-0.5,1.7-0.8,2.7-0.8c1.5,0,2.6,0.5,3.4,1.6
		c0.5,0.7,0.7,1.7,0.7,3v11.1c0,0.4,0,0.7,0.1,1h-4.3c0.1-0.2,0.1-0.6,0.1-1V20.6c0-1.5-0.6-2.2-1.8-2.2c-0.7,0-1.3,0.3-1.7,0.8
		c-0.4,0.5-0.5,1.2-0.5,2v9.7c0,0.4,0.1,0.7,0.1,1h-4.3c0.1-0.3,0.1-0.6,0.1-1V16.5C91.7,16.1,91.6,15.8,91.6,15.6z"/>
	<path class="st0" d="M107.1,17.7h-1.7v-2.1h1.7v-2.4l4.1-0.5c-0.1,0.5-0.1,0.8-0.1,1.1v1.8h2v2.1h-2v10.7c0,0.8,0.3,1.2,0.9,1.2
		c0.3,0,0.7-0.2,1.2-0.5v2.3c-0.9,0.5-1.9,0.7-2.8,0.7c-1.2,0-2-0.3-2.6-1c-0.4-0.5-0.6-1.3-0.6-2.3V17.7z"/>
	<path class="st0" d="M117.2,11.1c1.4,0,2.1,0.5,2.1,1.6c0,1.1-0.7,1.7-2.1,1.7c-1.5,0-2.2-0.5-2.2-1.7c0-0.5,0.2-0.9,0.5-1.2
		C115.9,11.3,116.5,11.1,117.2,11.1z M115,15.6h4.3c-0.1,0.3-0.1,0.6-0.1,1v14.3c0,0.4,0,0.7,0.1,1H115c0.1-0.3,0.1-0.6,0.1-1V16.5
		C115.1,16.1,115.1,15.8,115,15.6z"/>
	<path class="st0" d="M125.1,18.4l-1.5,12.4c0,0.1,0,0.2,0,0.2c0,0.1,0,0.4,0.1,0.7h-2.4c0.1-0.3,0.2-0.7,0.3-1l2.3-18.2
		c0-0.2,0-0.3,0-0.5c0-0.1,0-0.3,0-0.5h3.9c0,0.1,0,0.2,0,0.2c0,0.2,0,0.4,0.1,0.7l4,13.6l4-13.7c0.1-0.3,0.1-0.5,0.1-0.7
		c0,0,0-0.1,0-0.2h3.8c0,0.2,0,0.3,0,0.4c0,0.1,0,0.3,0,0.4l2.2,18.3c0,0.3,0.1,0.6,0.3,0.9h-4.6c0-0.2,0.1-0.3,0.1-0.4s0-0.3,0-0.5
		l-1.3-12.6l-3.7,12.6c-0.1,0.3-0.1,0.6-0.1,0.7c0,0,0,0.1,0,0.2h-3.5c0-0.1,0-0.1,0-0.2c0-0.2,0-0.4-0.1-0.7L125.1,18.4z"/>
	<path class="st0" d="M152.3,31.8V30c-0.5,0.7-1,1.1-1.4,1.4c-0.7,0.5-1.6,0.7-2.6,0.7c-1.4,0-2.4-0.4-3.1-1.2c-0.7-0.8-1-2-1-3.7
		V16.5c0-0.4,0-0.7-0.1-1h4.3c-0.1,0.2-0.1,0.6-0.1,1v10.1c0,0.7,0.1,1.2,0.4,1.5c0.3,0.5,0.8,0.7,1.5,0.7c0.7,0,1.3-0.3,1.7-0.8
		c0.3-0.4,0.4-0.9,0.4-1.6v-9.9c0-0.4-0.1-0.7-0.1-1h4.3c-0.1,0.2-0.1,0.6-0.1,1v14.3c0,0.3,0,0.7,0.1,1H152.3z"/>
	<path class="st0" d="M158.3,30.7l0.6-2.8c0.5,0.5,1,0.8,1.3,1.1c0.9,0.7,1.9,1,2.9,1c0.7,0,1.2-0.2,1.5-0.6
		c0.4-0.4,0.5-0.9,0.5-1.4c0-0.7-0.3-1.2-1-1.6c-0.2-0.1-1-0.5-2.4-1.2c-1.3-0.6-2.2-1.3-2.6-2.2c-0.4-0.7-0.6-1.6-0.6-2.4
		c0-1.9,0.7-3.3,2-4.3c1-0.7,2.1-1,3.5-1c1.4,0,2.8,0.3,4.4,1l-0.6,2.7c-1.3-1.1-2.4-1.6-3.5-1.6c-0.6,0-1.1,0.2-1.5,0.5
		c-0.4,0.4-0.7,0.8-0.7,1.4c0,0.5,0.2,1,0.7,1.3c0.2,0.1,1,0.5,2.3,1.1c1.3,0.5,2.2,1.2,2.7,1.9c0.5,0.8,0.8,1.8,0.8,3
		c0,1.9-0.6,3.3-1.7,4.3c-1,0.9-2.4,1.3-4.1,1.3C161.5,32.1,159.9,31.6,158.3,30.7z"/>
	<path class="st0" d="M173,11.1c1.4,0,2.1,0.5,2.1,1.6c0,1.1-0.7,1.7-2.1,1.7c-1.5,0-2.2-0.5-2.2-1.7c0-0.5,0.2-0.9,0.5-1.2
		C171.7,11.3,172.2,11.1,173,11.1z M170.8,15.6h4.3c-0.1,0.3-0.1,0.6-0.1,1v14.3c0,0.4,0,0.7,0.1,1h-4.3c0.1-0.3,0.1-0.6,0.1-1V16.5
		C170.9,16.1,170.9,15.8,170.8,15.6z"/>
	<path class="st0" d="M188.4,31.2c-0.7,0.3-1.1,0.4-1.4,0.5c-0.8,0.3-1.6,0.4-2.5,0.4c-2.1,0-3.7-0.7-4.9-2.1c-1.3-1.5-2-3.6-2-6.3
		c0-2.8,0.8-5.1,2.3-6.6c1.3-1.3,2.9-2,4.9-2c1.1,0,2.3,0.2,3.6,0.7v3c-0.5-0.4-0.8-0.7-1.1-0.9c-0.6-0.4-1.2-0.6-1.9-0.6
		c-1.1,0-2,0.5-2.6,1.6c-0.6,1.1-0.9,2.7-0.9,4.6c0,1.8,0.3,3.3,0.8,4.4c0.6,1.2,1.4,1.9,2.6,1.9c0.8,0,1.5-0.3,2.2-0.8
		c0.2-0.2,0.5-0.4,0.9-0.7V31.2z"/>
	<path class="st0" d="M197.1,30.2c-0.5,0.6-0.9,1-1.3,1.3c-0.7,0.4-1.5,0.6-2.5,0.6c-1.1,0-2-0.4-2.6-1.1c-0.8-0.9-1.2-2.1-1.2-3.7
		c0-1.7,0.5-2.9,1.5-3.8c0.6-0.5,1.2-0.9,2-1.2c0.5-0.2,1.2-0.4,2.1-0.8c0.6-0.2,1.1-0.5,1.4-0.8c0.3-0.3,0.4-0.7,0.4-1.3
		c0-0.6-0.2-1-0.5-1.4c-0.4-0.4-1-0.6-1.7-0.6c-0.8,0-1.6,0.3-2.4,0.8c-0.2,0.2-0.6,0.4-1,0.8l-0.5-2.6c1.7-0.8,3.5-1.2,5.2-1.2
		c1.7,0,3,0.4,3.8,1.2c0.7,0.7,1.1,1.6,1.1,2.9v8.9c0,0.7,0.2,1.1,0.7,1.1c0.2,0,0.5-0.2,0.8-0.5v2.4c-0.3,0.2-0.6,0.4-0.7,0.5
		c-0.6,0.3-1.2,0.5-1.9,0.5c-0.8,0-1.5-0.2-2-0.7C197.6,31.2,197.4,30.8,197.1,30.2z M196.9,22.8c-0.2,0.1-0.9,0.5-1.8,1
		c-0.6,0.3-1,0.8-1.3,1.4c-0.3,0.5-0.4,1.1-0.4,1.7c0,0.7,0.2,1.2,0.5,1.7c0.3,0.4,0.7,0.5,1.1,0.5c0.7,0,1.2-0.3,1.6-0.9
		c0.2-0.4,0.4-0.9,0.4-1.4V22.8z"/>
	<path class="st0" d="M208.3,10.1c-0.1,0.3-0.1,0.6-0.1,1v19.7c0,0.4,0.1,0.7,0.1,1H204c0.1-0.3,0.1-0.6,0.1-1V11.1
		c0-0.4,0-0.7-0.1-1H208.3z"/>
	<path class="st0" d="M213.2,11.1c1.4,0,2.1,0.5,2.1,1.6c0,1.1-0.7,1.7-2.1,1.7c-1.5,0-2.2-0.5-2.2-1.7c0-0.5,0.2-0.9,0.5-1.2
		C211.8,11.3,212.4,11.1,213.2,11.1z M211,15.6h4.3c-0.1,0.3-0.1,0.6-0.1,1v14.3c0,0.4,0,0.7,0.1,1H211c0.1-0.3,0.1-0.6,0.1-1V16.5
		C211.1,16.1,211.1,15.8,211,15.6z"/>
	<path class="st1" d="M220.4,27.1c0.6,0,1.1,0.2,1.5,0.7c0.4,0.5,0.5,1,0.5,1.7c0,0.7-0.2,1.3-0.5,1.7c-0.4,0.5-0.9,0.7-1.5,0.7
		c-0.6,0-1.1-0.2-1.5-0.7c-0.4-0.5-0.5-1.1-0.5-1.7c0-0.7,0.2-1.3,0.5-1.7C219.3,27.3,219.8,27.1,220.4,27.1z"/>
	<path class="st1" d="M225,15.6h3.6v1.8c0.4-0.7,0.8-1.2,1.2-1.4c0.7-0.5,1.5-0.8,2.4-0.8c1.3,0,2.3,0.5,3,1.6
		c0.4,0.7,0.7,1.7,0.7,3v11.1c0,0.4,0,0.7,0.1,1H232c0.1-0.2,0.1-0.6,0.1-1V20.6c0-1.5-0.5-2.2-1.6-2.2c-0.7,0-1.1,0.3-1.5,0.8
		c-0.3,0.5-0.5,1.2-0.5,2v9.7c0,0.4,0,0.7,0.1,1H225c0.1-0.3,0.1-0.6,0.1-1V16.5C225.1,16.1,225,15.8,225,15.6z"/>
	<path class="st1" d="M248.8,30.7c-0.6,0.4-1.2,0.7-1.6,0.9c-0.8,0.4-1.8,0.5-2.9,0.5c-2.1,0-3.8-0.8-4.9-2.4
		c-1-1.4-1.6-3.4-1.6-5.9c0-2.8,0.6-5,1.7-6.6c1-1.4,2.5-2.2,4.3-2.2c2.4,0,4,1.3,4.9,3.8c0.4,1.2,0.6,2.7,0.6,4.7h-7.8
		c0,1.6,0.1,2.8,0.4,3.7c0.5,1.8,1.5,2.7,3,2.7c1.2,0,2.3-0.7,3.5-2L248.8,30.7z M241.6,21.5h4c0-0.9-0.1-1.6-0.2-2.2
		c-0.1-0.7-0.4-1.2-0.7-1.6c-0.3-0.4-0.6-0.5-1.1-0.5c-0.8,0-1.4,0.7-1.7,2C241.8,19.8,241.7,20.6,241.6,21.5z"/>
	<path class="st1" d="M251.5,17.7H250v-2.1h1.5v-2.4l3.6-0.5c-0.1,0.5-0.1,0.8-0.1,1.1v1.8h1.8v2.1h-1.8v10.7c0,0.8,0.3,1.2,0.8,1.2
		c0.3,0,0.6-0.2,1-0.5v2.3c-0.8,0.5-1.6,0.7-2.5,0.7c-1,0-1.8-0.3-2.3-1c-0.4-0.5-0.6-1.3-0.6-2.3V17.7z"/>
	<g>
		<path class="st0" d="M8,49.9v-6.9h1.4v6.9H8z"/>
		<path class="st0" d="M14.2,49.9v-6.9h1.3v6.9H14.2z"/>
		<path class="st0" d="M28.7,44.8v1.1h-0.9v2c0,0.4,0,0.6,0,0.7c0,0.1,0.1,0.1,0.1,0.2c0.1,0,0.1,0.1,0.2,0.1c0.1,0,0.3,0,0.5-0.1
			l0.1,1c-0.3,0.1-0.7,0.2-1,0.2c-0.2,0-0.5,0-0.6-0.1c-0.2-0.1-0.3-0.2-0.4-0.3c-0.1-0.1-0.2-0.3-0.2-0.5c0-0.2,0-0.5,0-0.9v-2.2
			h-0.6v-1.1h0.6v-1l1.3-0.8v1.8H28.7z"/>
		<path class="st0" d="M36.4,49.9v-0.8c-0.2,0.3-0.4,0.5-0.7,0.6C35.3,49.9,35,50,34.7,50c-0.3,0-0.6-0.1-0.9-0.2
			c-0.3-0.1-0.5-0.4-0.6-0.6C33.1,48.9,33,48.5,33,48v-3.2h1.3v2.3c0,0.7,0,1.1,0.1,1.3c0,0.2,0.1,0.3,0.3,0.4
			c0.1,0.1,0.3,0.1,0.5,0.1c0.2,0,0.4-0.1,0.6-0.2c0.2-0.1,0.3-0.3,0.4-0.5c0.1-0.2,0.1-0.6,0.1-1.4v-2.1h1.3v5H36.4z"/>
		<path class="st0" d="M42.1,47.3c0-0.4,0.1-0.9,0.3-1.3c0.2-0.4,0.5-0.7,0.9-0.9c0.4-0.2,0.8-0.3,1.3-0.3c0.8,0,1.4,0.2,1.9,0.7
			c0.5,0.5,0.7,1.1,0.7,1.9c0,0.8-0.2,1.4-0.7,1.9c-0.5,0.5-1.1,0.7-1.8,0.7c-0.5,0-0.9-0.1-1.3-0.3c-0.4-0.2-0.7-0.5-1-0.9
			C42.2,48.3,42.1,47.9,42.1,47.3z M43.5,47.4c0,0.5,0.1,0.9,0.4,1.1c0.2,0.3,0.5,0.4,0.9,0.4c0.3,0,0.6-0.1,0.9-0.4
			c0.2-0.3,0.4-0.6,0.4-1.2c0-0.5-0.1-0.9-0.4-1.1c-0.2-0.3-0.5-0.4-0.9-0.4c-0.3,0-0.6,0.1-0.9,0.4C43.6,46.5,43.5,46.9,43.5,47.4z
			"/>
		<path class="st0" d="M62.4,49.9h-1.3v-2.6c0-0.5,0-0.9-0.1-1.1c-0.1-0.2-0.1-0.3-0.3-0.4c-0.1-0.1-0.3-0.1-0.5-0.1
			c-0.2,0-0.4,0.1-0.6,0.2c-0.2,0.1-0.3,0.3-0.4,0.5c-0.1,0.2-0.1,0.6-0.1,1.2v2.3h-1.3v-5h1.2v0.7c0.4-0.6,1-0.9,1.7-0.9
			c0.3,0,0.6,0.1,0.8,0.2c0.2,0.1,0.4,0.2,0.6,0.4c0.1,0.2,0.2,0.3,0.3,0.6c0,0.2,0.1,0.5,0.1,0.9V49.9z"/>
		<path class="st0" d="M70.1,48.3l1.3,0.2c-0.2,0.5-0.4,0.9-0.8,1.1c-0.4,0.3-0.8,0.4-1.4,0.4c-0.9,0-1.5-0.3-1.9-0.9
			c-0.3-0.5-0.5-1-0.5-1.7c0-0.8,0.2-1.5,0.7-2c0.4-0.5,1-0.7,1.6-0.7c0.7,0,1.3,0.2,1.8,0.7c0.4,0.5,0.6,1.2,0.6,2.3h-3.3
			c0,0.4,0.1,0.7,0.3,0.9c0.2,0.2,0.5,0.3,0.8,0.3c0.2,0,0.4-0.1,0.5-0.2S70.1,48.5,70.1,48.3z M70.2,46.9c0-0.4-0.1-0.7-0.3-0.9
			c-0.2-0.2-0.4-0.3-0.7-0.3c-0.3,0-0.5,0.1-0.7,0.3c-0.2,0.2-0.3,0.5-0.3,0.9H70.2z"/>
		<path class="st0" d="M75.9,50.2l1.5,0.2c0,0.2,0.1,0.3,0.2,0.4c0.1,0.1,0.3,0.1,0.6,0.1c0.3,0,0.6-0.1,0.8-0.2
			c0.1-0.1,0.2-0.2,0.3-0.3c0-0.1,0.1-0.3,0.1-0.6v-0.7c-0.4,0.5-0.9,0.8-1.5,0.8c-0.7,0-1.2-0.3-1.6-0.9c-0.3-0.5-0.5-1-0.5-1.7
			c0-0.8,0.2-1.5,0.6-1.9c0.4-0.4,0.9-0.7,1.5-0.7c0.6,0,1.1,0.3,1.5,0.8v-0.7h1.2v4.5c0,0.6,0,1-0.1,1.3c-0.1,0.3-0.2,0.5-0.4,0.7
			c-0.2,0.2-0.4,0.3-0.7,0.4c-0.3,0.1-0.7,0.1-1.1,0.1c-0.9,0-1.5-0.1-1.8-0.4c-0.4-0.3-0.5-0.7-0.5-1.1
			C75.9,50.3,75.9,50.3,75.9,50.2z M77.1,47.3c0,0.5,0.1,0.9,0.3,1.2c0.2,0.2,0.5,0.4,0.8,0.4c0.3,0,0.6-0.1,0.8-0.4
			c0.2-0.3,0.3-0.6,0.3-1.1c0-0.5-0.1-0.9-0.3-1.2c-0.2-0.3-0.5-0.4-0.8-0.4c-0.3,0-0.6,0.1-0.8,0.4C77.2,46.4,77.1,46.7,77.1,47.3z
			"/>
		<path class="st0" d="M85.1,47.3c0-0.4,0.1-0.9,0.3-1.3c0.2-0.4,0.5-0.7,0.9-0.9c0.4-0.2,0.8-0.3,1.3-0.3c0.8,0,1.4,0.2,1.9,0.7
			c0.5,0.5,0.7,1.1,0.7,1.9c0,0.8-0.2,1.4-0.7,1.9C89,49.7,88.4,50,87.7,50c-0.5,0-0.9-0.1-1.3-0.3c-0.4-0.2-0.7-0.5-1-0.9
			C85.2,48.3,85.1,47.9,85.1,47.3z M86.4,47.4c0,0.5,0.1,0.9,0.4,1.1c0.2,0.3,0.5,0.4,0.9,0.4c0.3,0,0.6-0.1,0.9-0.4
			c0.2-0.3,0.4-0.6,0.4-1.2c0-0.5-0.1-0.9-0.4-1.1c-0.2-0.3-0.5-0.4-0.9-0.4c-0.3,0-0.6,0.1-0.9,0.4C86.6,46.5,86.4,46.9,86.4,47.4z
			"/>
		<path class="st0" d="M94.2,49.9v-1l1.9-2.2c0.3-0.4,0.5-0.6,0.7-0.8c-0.2,0-0.4,0-0.6,0l-1.8,0v-1.1h4.1v0.9L96.6,48l-0.7,0.7
			c0.4,0,0.6,0,0.7,0h2.1v1.2H94.2z"/>
		<path class="st0" d="M103,44.2v-1.2h1.3v1.2H103z M103,49.9v-5h1.3v5H103z"/>
		<path class="st0" d="M108.8,47.3c0-0.4,0.1-0.9,0.3-1.3c0.2-0.4,0.5-0.7,0.9-0.9c0.4-0.2,0.8-0.3,1.3-0.3c0.8,0,1.4,0.2,1.9,0.7
			c0.5,0.5,0.7,1.1,0.7,1.9c0,0.8-0.2,1.4-0.7,1.9c-0.5,0.5-1.1,0.7-1.8,0.7c-0.5,0-0.9-0.1-1.3-0.3c-0.4-0.2-0.7-0.5-1-0.9
			C108.9,48.3,108.8,47.9,108.8,47.3z M110.2,47.4c0,0.5,0.1,0.9,0.4,1.1c0.2,0.3,0.5,0.4,0.9,0.4c0.3,0,0.6-0.1,0.9-0.4
			c0.2-0.3,0.4-0.6,0.4-1.2c0-0.5-0.1-0.9-0.4-1.1c-0.2-0.3-0.5-0.4-0.9-0.4c-0.3,0-0.6,0.1-0.9,0.4
			C110.3,46.5,110.2,46.9,110.2,47.4z"/>
		<path class="st0" d="M129.2,49.9H128v-0.7c-0.2,0.3-0.4,0.5-0.7,0.6c-0.3,0.1-0.6,0.2-0.8,0.2c-0.6,0-1.1-0.2-1.5-0.7
			c-0.4-0.5-0.6-1.1-0.6-1.9c0-0.9,0.2-1.5,0.6-1.9c0.4-0.4,0.9-0.7,1.5-0.7c0.6,0,1,0.2,1.5,0.7v-2.5h1.3V49.9z M125.7,47.2
			c0,0.5,0.1,0.9,0.2,1.2c0.2,0.3,0.5,0.5,0.9,0.5c0.3,0,0.6-0.1,0.8-0.4c0.2-0.3,0.3-0.6,0.3-1.2c0-0.6-0.1-1-0.3-1.2
			c-0.2-0.3-0.5-0.4-0.8-0.4c-0.3,0-0.6,0.1-0.8,0.4C125.8,46.4,125.7,46.7,125.7,47.2z"/>
		<path class="st0" d="M134,44.2v-1.2h1.3v1.2H134z M134,49.9v-5h1.3v5H134z"/>
		<path class="st0" d="M146.1,44.8h1.2v0.7c0.4-0.5,1-0.8,1.6-0.8c0.3,0,0.6,0.1,0.8,0.2c0.2,0.1,0.4,0.3,0.6,0.6
			c0.2-0.3,0.5-0.5,0.7-0.6c0.3-0.1,0.5-0.2,0.8-0.2c0.4,0,0.7,0.1,0.9,0.2c0.3,0.1,0.4,0.4,0.6,0.7c0.1,0.2,0.1,0.6,0.1,1v3.2h-1.3
			V47c0-0.5,0-0.8-0.1-1c-0.1-0.2-0.3-0.3-0.6-0.3c-0.2,0-0.4,0.1-0.5,0.2c-0.2,0.1-0.3,0.3-0.4,0.5c-0.1,0.2-0.1,0.6-0.1,1v2.4
			h-1.3v-2.8c0-0.5,0-0.8-0.1-0.9c0-0.1-0.1-0.2-0.2-0.3c-0.1-0.1-0.2-0.1-0.4-0.1c-0.2,0-0.4,0.1-0.6,0.2c-0.2,0.1-0.3,0.3-0.4,0.5
			c-0.1,0.2-0.1,0.6-0.1,1v2.4h-1.3V44.8z"/>
		<path class="st0" d="M161.5,49.9v-0.8c-0.2,0.3-0.4,0.5-0.7,0.6c-0.3,0.2-0.6,0.2-0.9,0.2c-0.3,0-0.6-0.1-0.9-0.2
			c-0.3-0.1-0.5-0.4-0.6-0.6c-0.1-0.3-0.2-0.6-0.2-1.1v-3.2h1.3v2.3c0,0.7,0,1.1,0.1,1.3c0,0.2,0.1,0.3,0.3,0.4
			c0.1,0.1,0.3,0.1,0.5,0.1c0.2,0,0.4-0.1,0.6-0.2c0.2-0.1,0.3-0.3,0.4-0.5c0.1-0.2,0.1-0.6,0.1-1.4v-2.1h1.3v5H161.5z"/>
		<path class="st0" d="M167.1,48.4l1.3-0.2c0.1,0.3,0.2,0.5,0.3,0.6c0.2,0.1,0.4,0.2,0.7,0.2c0.3,0,0.6-0.1,0.8-0.2
			c0.1-0.1,0.2-0.2,0.2-0.4c0-0.1,0-0.2-0.1-0.3c-0.1-0.1-0.2-0.1-0.4-0.2c-1.1-0.2-1.7-0.5-2-0.6c-0.4-0.3-0.6-0.6-0.6-1.1
			c0-0.4,0.2-0.8,0.5-1.1c0.3-0.3,0.9-0.4,1.6-0.4c0.7,0,1.2,0.1,1.5,0.3c0.3,0.2,0.6,0.6,0.7,1l-1.3,0.2c-0.1-0.2-0.2-0.3-0.3-0.4
			c-0.1-0.1-0.4-0.2-0.6-0.2c-0.3,0-0.6,0-0.8,0.1c-0.1,0.1-0.2,0.2-0.2,0.3c0,0.1,0,0.2,0.1,0.2c0.1,0.1,0.5,0.2,1.2,0.4
			c0.7,0.2,1.2,0.4,1.5,0.6c0.3,0.2,0.4,0.6,0.4,1c0,0.5-0.2,0.9-0.6,1.2c-0.4,0.3-1,0.5-1.7,0.5c-0.7,0-1.2-0.1-1.6-0.4
			C167.5,49.3,167.2,48.9,167.1,48.4z"/>
		<path class="st0" d="M176.4,44.2v-1.2h1.3v1.2H176.4z M176.4,49.9v-5h1.3v5H176.4z"/>
		<path class="st0" d="M186.9,46.3l-1.3,0.2c0-0.3-0.1-0.5-0.3-0.6c-0.2-0.1-0.4-0.2-0.6-0.2c-0.3,0-0.6,0.1-0.8,0.3
			c-0.2,0.2-0.3,0.6-0.3,1.1c0,0.6,0.1,1,0.3,1.3c0.2,0.2,0.5,0.4,0.8,0.4c0.3,0,0.5-0.1,0.6-0.2c0.2-0.1,0.3-0.4,0.3-0.7l1.3,0.2
			c-0.1,0.6-0.4,1.1-0.8,1.4c-0.4,0.3-0.9,0.5-1.5,0.5c-0.7,0-1.3-0.2-1.8-0.7c-0.4-0.5-0.7-1.1-0.7-1.9c0-0.8,0.2-1.5,0.7-1.9
			c0.4-0.5,1-0.7,1.8-0.7c0.6,0,1.1,0.1,1.5,0.4C186.5,45.4,186.7,45.8,186.9,46.3z"/>
		<path class="st0" d="M192.3,46.4l-1.2-0.2c0.1-0.5,0.4-0.8,0.7-1.1c0.3-0.2,0.8-0.3,1.5-0.3c0.6,0,1,0.1,1.3,0.2
			c0.3,0.1,0.5,0.3,0.6,0.5c0.1,0.2,0.2,0.6,0.2,1.2l0,1.5c0,0.4,0,0.8,0.1,1c0,0.2,0.1,0.4,0.2,0.7h-1.3c0-0.1-0.1-0.2-0.1-0.4
			c0-0.1,0-0.1,0-0.2c-0.2,0.2-0.5,0.4-0.7,0.5c-0.3,0.1-0.5,0.2-0.8,0.2c-0.5,0-0.9-0.1-1.2-0.4c-0.3-0.3-0.4-0.6-0.4-1.1
			c0-0.3,0.1-0.5,0.2-0.8c0.1-0.2,0.3-0.4,0.6-0.5c0.2-0.1,0.6-0.2,1.1-0.3c0.6-0.1,1.1-0.2,1.3-0.3v-0.1c0-0.3-0.1-0.4-0.2-0.5
			c-0.1-0.1-0.4-0.2-0.7-0.2c-0.2,0-0.4,0-0.6,0.1C192.5,46,192.4,46.1,192.3,46.4z M194.1,47.5c-0.2,0.1-0.4,0.1-0.8,0.2
			c-0.4,0.1-0.6,0.2-0.7,0.2c-0.2,0.1-0.3,0.3-0.3,0.5c0,0.2,0.1,0.3,0.2,0.5c0.1,0.1,0.3,0.2,0.5,0.2c0.2,0,0.5-0.1,0.7-0.2
			c0.2-0.1,0.3-0.3,0.3-0.4c0-0.1,0.1-0.3,0.1-0.6V47.5z"/>
		<path class="st0" d="M206,47.3c0-0.4,0.1-0.9,0.3-1.3c0.2-0.4,0.5-0.7,0.9-0.9c0.4-0.2,0.8-0.3,1.3-0.3c0.8,0,1.4,0.2,1.9,0.7
			c0.5,0.5,0.7,1.1,0.7,1.9c0,0.8-0.2,1.4-0.7,1.9c-0.5,0.5-1.1,0.7-1.8,0.7c-0.5,0-0.9-0.1-1.3-0.3c-0.4-0.2-0.7-0.5-1-0.9
			C206.1,48.3,206,47.9,206,47.3z M207.3,47.4c0,0.5,0.1,0.9,0.4,1.1c0.2,0.3,0.5,0.4,0.9,0.4s0.6-0.1,0.9-0.4
			c0.2-0.3,0.4-0.6,0.4-1.2c0-0.5-0.1-0.9-0.4-1.1c-0.2-0.3-0.5-0.4-0.9-0.4s-0.6,0.1-0.9,0.4C207.5,46.5,207.3,46.9,207.3,47.4z"/>
		<path class="st0" d="M220.2,49.9h-1.3v-2.6c0-0.5,0-0.9-0.1-1.1c-0.1-0.2-0.1-0.3-0.3-0.4c-0.1-0.1-0.3-0.1-0.5-0.1
			c-0.2,0-0.4,0.1-0.6,0.2c-0.2,0.1-0.3,0.3-0.4,0.5c-0.1,0.2-0.1,0.6-0.1,1.2v2.3h-1.3v-5h1.2v0.7c0.4-0.6,1-0.9,1.7-0.9
			c0.3,0,0.6,0.1,0.8,0.2c0.2,0.1,0.4,0.2,0.6,0.4c0.1,0.2,0.2,0.3,0.3,0.6c0,0.2,0.1,0.5,0.1,0.9V49.9z"/>
		<path class="st0" d="M225,49.9v-6.9h1.3v6.9H225z"/>
		<path class="st0" d="M231.1,44.2v-1.2h1.3v1.2H231.1z M231.1,49.9v-5h1.3v5H231.1z"/>
		<path class="st0" d="M241.8,49.9h-1.3v-2.6c0-0.5,0-0.9-0.1-1.1c-0.1-0.2-0.1-0.3-0.3-0.4c-0.1-0.1-0.3-0.1-0.5-0.1
			c-0.2,0-0.4,0.1-0.6,0.2c-0.2,0.1-0.3,0.3-0.4,0.5c-0.1,0.2-0.1,0.6-0.1,1.2v2.3h-1.3v-5h1.2v0.7c0.4-0.6,1-0.9,1.7-0.9
			c0.3,0,0.6,0.1,0.8,0.2c0.2,0.1,0.4,0.2,0.6,0.4c0.1,0.2,0.2,0.3,0.3,0.6c0,0.2,0.1,0.5,0.1,0.9V49.9z"/>
		<path class="st0" d="M249.5,48.3l1.3,0.2c-0.2,0.5-0.4,0.9-0.8,1.1c-0.4,0.3-0.8,0.4-1.4,0.4c-0.9,0-1.5-0.3-1.9-0.9
			c-0.3-0.5-0.5-1-0.5-1.7c0-0.8,0.2-1.5,0.7-2c0.4-0.5,1-0.7,1.6-0.7c0.7,0,1.3,0.2,1.8,0.7c0.4,0.5,0.6,1.2,0.6,2.3h-3.3
			c0,0.4,0.1,0.7,0.3,0.9c0.2,0.2,0.5,0.3,0.8,0.3c0.2,0,0.4-0.1,0.5-0.2C249.3,48.7,249.4,48.5,249.5,48.3z M249.6,46.9
			c0-0.4-0.1-0.7-0.3-0.9c-0.2-0.2-0.4-0.3-0.7-0.3c-0.3,0-0.5,0.1-0.7,0.3c-0.2,0.2-0.3,0.5-0.3,0.9H249.6z"/>
		<path class="st0" d="M255.9,48.1l-0.3-3.5v-1.6h1.4v1.6l-0.3,3.5H255.9z M255.6,49.9v-1.3h1.3v1.3H255.6z"/>
	</g>
	<line class="st2" x1="8" y1="38.1" x2="256.8" y2="38.1"/>
</g>
</svg>
